<svg width="101" height="96" viewBox="0 0 101 96" version="1.1" xmlns="http://www.w3.org/2000/svg"><title>hammer</title><g id="Page-1" stroke="none" stroke-width="1" fill="none" fill-rule="evenodd"><g id="hammer" fill="#FFF"><path d="M53.361 28.924L64.197 40.06 15.743 93.629c-2.107 2.259-5.872 2.259-8.13 0l-5.866-6.018c-2.258-2.106-2.258-5.868 0-8.124l51.614-50.563zm45.451 11.435l-8.13 8.278c-1.653 1.656-4.214 1.656-6.018 0l-1.805-1.955c-1.355-1.205-1.961-3.463-1.204-4.516 1.35-.902.902-3.611-1.659-6.021-3.607-3.762-8.275-3.911-10.079-1.956-.751.603-3.16 3.16-3.16 3.16L55.619 26.366l1.81-1.807s.448-.451 1.351-1.504c3.463-3.462-.151-7.374-.151-7.374-9.777-9.631-23.471-9.48-23.471-9.48l-.151-3.463c27.539-7.074 37.921 4.967 41.687 8.729 3.456 3.46 7.07 7.071 7.973 7.976 1.955 1.955 0 7.521 2.857 10.685 1.355 1.353 3.16 1.956 4.516 1.956 1.508-1.353 3.911-.902 5.115.451l1.659 1.807c1.651 1.656 1.651 4.213-.002 6.017z" id="Shape"/></g></g></svg>