<?xml version="1.0" encoding="UTF-8"?>
<svg width="101px" height="96px" viewBox="0 0 101 96" version="1.1" xmlns="http://www.w3.org/2000/svg" xmlns:xlink="http://www.w3.org/1999/xlink">
    <!-- Generator: Sketch 3.6.1 (26313) - http://www.bohemiancoding.com/sketch -->
    <title>hammer</title>
    <desc>Created with Sketch.</desc>
    <defs></defs>
    <g id="Page-1" stroke="none" stroke-width="1" fill="none" fill-rule="evenodd">
        <g id="hammer" fill="#FFFFFF">
            <path d="M53.361,28.924 L64.197,40.06 L15.743,93.629 C13.636,95.888 9.871,95.888 7.613,93.629 L1.747,87.611 C-0.511,85.505 -0.511,81.743 1.747,79.487 L53.361,28.924 L53.361,28.924 Z" id="Shape"></path>
            <path d="M98.812,40.359 L90.682,48.637 C89.029,50.293 86.468,50.293 84.664,48.637 L82.859,46.682 C81.504,45.477 80.898,43.219 81.655,42.166 C83.005,41.264 82.557,38.555 79.996,36.145 C76.389,32.383 71.721,32.234 69.917,34.189 C69.166,34.792 66.757,37.349 66.757,37.349 L55.619,26.366 L57.429,24.559 C57.429,24.559 57.877,24.108 58.78,23.055 C62.243,19.593 58.629,15.681 58.629,15.681 C48.852,6.05 35.158,6.201 35.158,6.201 L35.007,2.738 C62.546,-4.336 72.928,7.705 76.694,11.467 C80.15,14.927 83.764,18.538 84.667,19.443 C86.622,21.398 84.667,26.964 87.524,30.128 C88.879,31.481 90.684,32.084 92.04,32.084 C93.548,30.731 95.951,31.182 97.155,32.535 L98.814,34.342 C100.465,35.998 100.465,38.555 98.812,40.359 L98.812,40.359 Z" id="Shape"></path>
        </g>
    </g>
</svg>